<?xml version="1.0" encoding="UTF-8" standalone="no"?>
<!-- Created with Inkscape (http://www.inkscape.org/) -->

<svg
   width="200.45845mm"
   height="64.433472mm"
   viewBox="0 0 200.45845 64.433472"
   version="1.1"
   id="svg1"
   xml:space="preserve"
   sodipodi:docname="athena_logo.svg"
   inkscape:version="1.4.2 (f4327f4, 2025-05-13)"
   xmlns:inkscape="http://www.inkscape.org/namespaces/inkscape"
   xmlns:sodipodi="http://sodipodi.sourceforge.net/DTD/sodipodi-0.dtd"
   xmlns="http://www.w3.org/2000/svg"
   xmlns:svg="http://www.w3.org/2000/svg"><sodipodi:namedview
     id="namedview1"
     pagecolor="#505050"
     bordercolor="#eeeeee"
     borderopacity="1"
     inkscape:showpageshadow="0"
     inkscape:pageopacity="0"
     inkscape:pagecheckerboard="0"
     inkscape:deskcolor="#505050"
     inkscape:document-units="mm"
     showguides="true"
     showgrid="true"
     inkscape:zoom="0.71891835"
     inkscape:cx="396.42889"
     inkscape:cy="14.605275"
     inkscape:window-width="1920"
     inkscape:window-height="1009"
     inkscape:window-x="1072"
     inkscape:window-y="661"
     inkscape:window-maximized="1"
     inkscape:current-layer="layer1"><sodipodi:guide
       position="100.10409,448.78439"
       orientation="0,-1"
       id="guide1"
       inkscape:locked="false" /><inkscape:grid
       id="grid2"
       units="mm"
       originx="2.8403608e-08"
       originy="-148.47211"
       spacingx="0.99999998"
       spacingy="1"
       empcolor="#0099e5"
       empopacity="0.30196078"
       color="#0099e5"
       opacity="0.14901961"
       empspacing="5"
       enabled="true"
       visible="true" /></sodipodi:namedview><defs
     id="defs1" /><g
     inkscape:label="Layer 1"
     inkscape:groupmode="layer"
     id="layer1"
     transform="translate(2.8403609e-8,-148.47211)"><g
       id="g39"
       transform="matrix(0.22800485,0.22800485,-0.22800485,0.22800485,98.831668,106.03446)">
	<path
   style="display:inline;fill:#343434;fill-opacity:1"
   d="m 10.001,439.322 c -2.559,0 -5.119,-0.976 -7.071,-2.929 -3.905,-3.905 -3.905,-10.237 0,-14.143 L 369.662,55.519 c 3.905,-3.904 10.237,-3.904 14.143,0 3.905,3.905 3.905,10.237 0,14.143 L 17.072,436.393 c -1.952,1.953 -4.512,2.929 -7.071,2.929 z"
   id="path30" />
	<path
   style="display:none;fill:#ef5252"
   d="m 291.932,170.698 c -2.559,0 -5.118,-0.976 -7.071,-2.929 l -13.307,-13.307 c -3.905,-3.905 -3.906,-10.237 0,-14.142 3.906,-3.905 10.237,-3.906 14.142,0 l 13.307,13.307 c 3.905,3.905 3.906,10.237 0,14.142 -1.953,1.953 -4.512,2.929 -7.071,2.929 z"
   id="path31" />
	<path
   style="display:none;fill:#f9e17a"
   d="m 274.31,188.32 c -2.559,0 -5.119,-0.976 -7.071,-2.929 l -13.307,-13.307 c -3.905,-3.905 -3.905,-10.237 0,-14.143 3.905,-3.905 10.237,-3.905 14.143,0 l 13.307,13.307 c 3.905,3.905 3.905,10.237 0,14.143 -1.953,1.953 -4.513,2.929 -7.072,2.929 z"
   id="path32" />
	<path
   style="display:none;fill:#ef5252"
   d="m 256.689,205.941 c -2.56,0 -5.118,-0.976 -7.071,-2.929 l -13.307,-13.307 c -3.905,-3.905 -3.905,-10.237 0,-14.142 3.905,-3.904 10.237,-3.905 14.142,0 l 13.307,13.307 c 3.905,3.905 3.905,10.237 0,14.142 -1.953,1.953 -4.512,2.929 -7.071,2.929 z"
   id="path33" />
	<path
   style="display:none;fill:#f9e17a"
   d="m 60.571,402.059 c -2.559,0 -5.119,-0.976 -7.071,-2.929 L 40.193,385.823 c -3.905,-3.905 -3.905,-10.237 0,-14.143 3.905,-3.905 10.237,-3.905 14.143,0 l 13.307,13.307 c 3.905,3.905 3.905,10.237 0,14.143 -1.953,1.953 -4.513,2.929 -7.072,2.929 z"
   id="path34" />
	<path
   style="display:none;fill:#ef5252"
   d="m 42.949,419.681 c -2.559,0 -5.119,-0.976 -7.071,-2.929 L 22.571,403.445 c -3.905,-3.905 -3.905,-10.237 0,-14.143 3.905,-3.905 10.237,-3.905 14.143,0 l 13.307,13.307 c 3.905,3.905 3.905,10.237 0,14.143 -1.953,1.952 -4.513,2.929 -7.072,2.929 z"
   id="path35" />
	<path
   style="display:none;fill:#ef5252"
   d="m 386.761,165.385 c 0,7.2 -1.15,14.52 -3.56,21.72 -17.9,-6 -31.66,-18.67 -39.47,-34.32 3.45,-7.17 5.23,-15.03 5.23,-22.96 0,-10.06 -2.87,-20.23 -8.86,-29.23 h 0.01 c 28.59,9.58 46.65,36.22 46.65,64.79 z"
   id="path36" />
	<path
   style="display:none;fill:none;fill-opacity:1"
   d="m 343.731,152.785 c -3.97,8.28 -10.15,15.63 -18.35,21.08 -16.17,-24.3 -9.57,-57.1 14.72,-73.27 5.99,9 8.86,19.17 8.86,29.23 0,7.93 -1.78,15.79 -5.23,22.96 z"
   id="path37" />
	<path
   style="display:inline;fill:#999999"
   d="M 391.436,77.287 376.735,62.586 439.321,0 c 0,0 -15.62,36.975 -47.885,77.287 z"
   id="path38" />
	<path
   style="display:inline;fill:#666666"
   d="M 439.321,0 376.735,62.586 362.041,47.892 C 402.353,15.627 439.321,0 439.321,0 Z"
   id="path39" />
</g><g
       id="g2"
       transform="translate(-8.8698859,18.401487)"><g
         style="fill:#000000"
         id="g1"
         transform="matrix(2.3099183,0,0,2.5077342,-0.45068829,125.05519)"><path
           d="m 12.035023,1.9999854 a 8,8 0 0 0 -7.9999997,8 v 9.9999996 l 4,2 1.9999997,-2 v -3 l -1.9999997,-1 v -5 l 3.9999997,2 4,-2 v 5 l -2,1 v 3 l 2,2 4,-2 V 9.9999854 a 8,8 0 0 0 -8,-8 z m 2,6 h -4 a 1,1 0 0 1 0,-2 h 4 a 1,1 0 0 1 0,2 z"
           id="path1-8"
           style="fill:#ffffff" /></g><text
         xml:space="preserve"
         style="font-size:37.9825px;text-align:start;writing-mode:lr-tb;direction:ltr;text-anchor:start;fill:#ffffff;fill-opacity:1;stroke-width:3.1651;stroke-dasharray:none"
         x="136.93436"
         y="159.60252"
         id="text1"
         transform="scale(0.93760993,1.0665416)"><tspan
           sodipodi:role="line"
           id="tspan1"
           style="font-style:normal;font-variant:normal;font-weight:normal;font-stretch:normal;font-family:'Trebuchet MS';-inkscape-font-specification:'Trebuchet MS';text-align:center;direction:ltr;text-anchor:middle;stroke-width:3.1651;stroke-dasharray:none"
           x="136.93436"
           y="159.60252">thena CTF</tspan></text></g></g></svg>
